<svg width="697" height="674" viewBox="0 0 697 674" fill="none" xmlns="http://www.w3.org/2000/svg">
<circle cx="225.336" cy="225.336" r="225.336" fill="#C0FCC1"/>
<path d="M168.706 189.403H128.861C127.805 189.403 126.791 188.944 126.044 188.126C125.297 187.309 124.877 186.201 124.877 185.046C124.877 183.89 125.297 182.782 126.044 181.965C126.791 181.147 127.805 180.688 128.861 180.688H168.706C169.762 180.688 170.776 181.147 171.523 181.965C172.27 182.782 172.69 183.89 172.69 185.046C172.69 186.201 172.27 187.309 171.523 188.126C170.776 188.944 169.762 189.403 168.706 189.403V189.403Z" fill="#FCA7D1"/>
<path d="M240.426 189.403H200.581C200.058 189.403 199.54 189.29 199.057 189.071C198.573 188.852 198.134 188.531 197.764 188.126C197.394 187.722 197.1 187.242 196.9 186.713C196.7 186.184 196.597 185.618 196.597 185.046C196.597 184.473 196.7 183.907 196.9 183.378C197.1 182.849 197.394 182.369 197.764 181.965C198.134 181.56 198.573 181.239 199.057 181.02C199.54 180.801 200.058 180.688 200.581 180.688H240.426C240.949 180.688 241.467 180.801 241.95 181.02C242.434 181.239 242.873 181.56 243.243 181.965C243.613 182.369 243.906 182.849 244.107 183.378C244.307 183.907 244.41 184.473 244.41 185.046C244.41 185.618 244.307 186.184 244.107 186.713C243.906 187.242 243.613 187.722 243.243 188.126C242.873 188.531 242.434 188.852 241.95 189.071C241.467 189.29 240.949 189.403 240.426 189.403Z" fill="#FCA7D1"/>
<path d="M276.286 224.26H236.442C235.918 224.26 235.4 224.147 234.917 223.928C234.433 223.709 233.994 223.388 233.624 222.984C233.254 222.579 232.961 222.099 232.76 221.57C232.56 221.042 232.457 220.475 232.457 219.903C232.457 219.331 232.56 218.764 232.76 218.235C232.961 217.707 233.254 217.226 233.624 216.822C233.994 216.417 234.433 216.096 234.917 215.877C235.4 215.658 235.918 215.546 236.442 215.546H276.286C276.809 215.546 277.327 215.658 277.811 215.877C278.294 216.096 278.733 216.417 279.103 216.822C279.473 217.226 279.767 217.707 279.967 218.235C280.167 218.764 280.27 219.331 280.27 219.903C280.27 220.475 280.167 221.042 279.967 221.57C279.767 222.099 279.473 222.579 279.103 222.984C278.733 223.388 278.294 223.709 277.811 223.928C277.327 224.147 276.809 224.26 276.286 224.26Z" fill="#FCA7D1"/>
<path d="M204.785 224.26H128.861C127.805 224.26 126.791 223.801 126.044 222.984C125.297 222.167 124.877 221.058 124.877 219.903C124.877 218.747 125.297 217.639 126.044 216.822C126.791 216.005 127.805 215.546 128.861 215.546H204.785C205.842 215.546 206.855 216.005 207.603 216.822C208.35 217.639 208.77 218.747 208.77 219.903C208.77 221.058 208.35 222.167 207.603 222.984C206.855 223.801 205.842 224.26 204.785 224.26V224.26Z" fill="#FCA7D1"/>
<path d="M348.225 189.403H272.301C271.244 189.403 270.231 188.944 269.483 188.126C268.736 187.309 268.316 186.201 268.316 185.046C268.316 183.89 268.736 182.782 269.483 181.965C270.231 181.147 271.244 180.688 272.301 180.688H348.225C348.748 180.688 349.266 180.801 349.75 181.02C350.233 181.239 350.672 181.56 351.042 181.965C351.412 182.369 351.706 182.849 351.906 183.378C352.106 183.907 352.209 184.473 352.209 185.046C352.209 185.618 352.106 186.184 351.906 186.713C351.706 187.242 351.412 187.722 351.042 188.126C350.672 188.531 350.233 188.852 349.75 189.071C349.266 189.29 348.748 189.403 348.225 189.403Z" fill="#FCA7D1"/>
<path d="M195.984 123.395H120.06C119.536 123.397 119.017 123.285 118.532 123.067C118.048 122.848 117.607 122.528 117.236 122.123C116.865 121.718 116.571 121.237 116.37 120.708C116.169 120.179 116.066 119.611 116.066 119.038C116.066 118.465 116.169 117.897 116.37 117.368C116.571 116.838 116.865 116.358 117.236 115.953C117.607 115.548 118.048 115.227 118.532 115.009C119.017 114.791 119.536 114.679 120.06 114.681H195.984C197.041 114.681 198.054 115.14 198.802 115.957C199.549 116.774 199.969 117.882 199.969 119.038C199.969 120.193 199.549 121.302 198.802 122.119C198.054 122.936 197.041 123.395 195.984 123.395V123.395Z" fill="#FCA7D1"/>
<path d="M202.226 148.851C201.483 148.852 200.757 148.598 200.152 148.125C199.547 147.653 199.091 146.985 198.85 146.216C198.608 145.447 198.593 144.614 198.805 143.835C199.018 143.055 199.447 142.368 200.035 141.869L219.476 125.344C220.257 124.68 220.903 123.845 221.374 122.894C221.845 121.942 222.13 120.894 222.212 119.816C222.293 118.737 222.168 117.652 221.846 116.629C221.524 115.606 221.011 114.668 220.339 113.873L204.018 94.5502C203.7 94.1739 203.452 93.7328 203.29 93.252C203.128 92.7713 203.054 92.2603 203.073 91.7483C203.091 91.2363 203.201 90.7333 203.398 90.2679C203.594 89.8026 203.872 89.3842 204.216 89.0364C204.56 88.6886 204.964 88.4184 205.403 88.2411C205.843 88.0638 206.31 87.9829 206.778 88.003C207.247 88.0232 207.707 88.1441 208.132 88.3586C208.558 88.5732 208.94 88.8773 209.258 89.2536L233.497 117.946C233.832 118.343 234.088 118.812 234.249 119.323C234.41 119.834 234.473 120.376 234.432 120.914C234.392 121.453 234.25 121.977 234.014 122.452C233.779 122.927 233.456 123.344 233.066 123.676L204.415 148.03C203.789 148.563 203.019 148.852 202.226 148.851Z" fill="#FCA7D1"/>
<path d="M116.218 148.851C116.962 148.852 117.687 148.598 118.292 148.125C118.898 147.653 119.353 146.985 119.595 146.216C119.836 145.447 119.852 144.614 119.639 143.835C119.427 143.055 118.997 142.368 118.41 141.869L98.9686 125.344C98.1874 124.68 97.5409 123.845 97.07 122.894C96.599 121.942 96.3139 120.894 96.2327 119.816C96.1515 118.737 96.276 117.652 96.5983 116.629C96.9206 115.606 97.4336 114.668 98.105 113.873L114.427 94.5502C114.745 94.1739 114.992 93.7328 115.154 93.252C115.316 92.7713 115.39 92.2603 115.372 91.7483C115.353 91.2363 115.243 90.7333 115.047 90.2679C114.85 89.8026 114.572 89.3842 114.228 89.0364C113.884 88.6886 113.481 88.4184 113.041 88.2411C112.601 88.0638 112.134 87.9829 111.666 88.003C111.198 88.0232 110.738 88.1441 110.312 88.3586C109.887 88.5732 109.504 88.8773 109.186 89.2536L84.9476 117.946C84.6123 118.343 84.3559 118.812 84.1949 119.323C84.0338 119.834 83.9715 120.376 84.012 120.914C84.0524 121.453 84.1947 121.977 84.4298 122.452C84.665 122.927 84.9879 123.344 85.378 123.676L114.029 148.03C114.655 148.563 115.425 148.852 116.218 148.851V148.851Z" fill="#FCA7D1"/>
<path d="M235.233 298.982H159.309C158.252 298.982 157.239 298.523 156.492 297.706C155.745 296.889 155.325 295.78 155.325 294.625C155.325 293.469 155.745 292.361 156.492 291.544C157.239 290.727 158.252 290.268 159.309 290.268H235.233C236.29 290.268 237.303 290.727 238.051 291.544C238.798 292.361 239.218 293.469 239.218 294.625C239.218 295.78 238.798 296.889 238.051 297.706C237.303 298.523 236.29 298.982 235.233 298.982V298.982Z" fill="#FCA7D1"/>
<path d="M248.612 320.536C247.868 320.537 247.143 320.283 246.538 319.81C245.932 319.338 245.477 318.67 245.236 317.901C244.994 317.132 244.978 316.299 245.191 315.52C245.403 314.74 245.833 314.053 246.42 313.554L265.861 297.028C266.643 296.364 267.289 295.53 267.76 294.579C268.231 293.627 268.516 292.579 268.597 291.5C268.679 290.422 268.554 289.337 268.232 288.314C267.909 287.291 267.396 286.353 266.725 285.558L250.403 266.235C250.085 265.859 249.838 265.418 249.676 264.937C249.514 264.456 249.44 263.945 249.458 263.433C249.477 262.921 249.587 262.418 249.784 261.953C249.98 261.488 250.258 261.069 250.602 260.721C250.946 260.373 251.349 260.103 251.789 259.926C252.229 259.749 252.696 259.668 253.164 259.688C253.632 259.708 254.092 259.829 254.518 260.043C254.943 260.258 255.326 260.562 255.644 260.938L279.882 289.631C280.218 290.028 280.474 290.497 280.635 291.008C280.796 291.519 280.859 292.061 280.818 292.599C280.778 293.138 280.635 293.661 280.4 294.137C280.165 294.612 279.842 295.029 279.452 295.36L250.801 319.715C250.175 320.248 249.405 320.537 248.612 320.536Z" fill="#FCA7D1"/>
<path d="M116.218 320.536C116.962 320.537 117.687 320.283 118.292 319.81C118.898 319.338 119.353 318.67 119.595 317.901C119.836 317.132 119.852 316.299 119.639 315.52C119.427 314.74 118.997 314.053 118.41 313.554L98.9686 297.028C98.1874 296.364 97.5409 295.53 97.07 294.579C96.599 293.627 96.3139 292.579 96.2327 291.5C96.1515 290.422 96.276 289.337 96.5983 288.314C96.9206 287.291 97.4336 286.353 98.105 285.558L114.427 266.235C115.069 265.475 115.409 264.467 115.372 263.433C115.334 262.399 114.923 261.424 114.228 260.721C113.533 260.019 112.611 259.647 111.666 259.688C110.72 259.729 109.828 260.179 109.186 260.938L84.9476 289.631C84.6123 290.028 84.3559 290.497 84.1949 291.008C84.0338 291.519 83.9715 292.061 84.012 292.599C84.0524 293.138 84.1947 293.661 84.4298 294.137C84.665 294.612 84.9879 295.029 85.378 295.36L114.029 319.715C114.655 320.248 115.425 320.537 116.218 320.536V320.536Z" fill="#FCA7D1"/>
<path d="M122.994 308.328L138.953 268.405C139.38 267.351 140.17 266.525 141.152 266.107C142.134 265.689 143.228 265.714 144.193 266.176C145.158 266.637 145.917 267.498 146.304 268.57C146.69 269.642 146.673 270.837 146.255 271.895L130.295 311.819C130.088 312.346 129.786 312.823 129.409 313.222C129.033 313.621 128.587 313.935 128.099 314.146C127.611 314.356 127.089 314.459 126.564 314.449C126.04 314.439 125.522 314.315 125.041 314.085C124.56 313.855 124.125 313.524 123.762 313.109C123.399 312.695 123.114 312.207 122.923 311.672C122.733 311.137 122.642 310.566 122.654 309.992C122.666 309.418 122.781 308.853 122.994 308.328V308.328Z" fill="#FCA7D1"/>
<circle cx="475.336" cy="452.336" r="221.336" fill="#D6CCFC"/>
<path d="M619.872 342.994H330.128C329.827 342.987 329.54 342.863 329.329 342.648C329.118 342.432 329 342.143 329 341.842C329 341.54 329.118 341.251 329.329 341.035C329.54 340.82 329.827 340.696 330.128 340.689H619.872C620.173 340.696 620.46 340.82 620.671 341.035C620.882 341.251 621 341.54 621 341.842C621 342.143 620.882 342.432 620.671 342.648C620.46 342.863 620.173 342.987 619.872 342.994V342.994Z" fill="white"/>
<path d="M349.851 334.806C353.581 334.806 356.604 331.716 356.604 327.903C356.604 324.091 353.581 321 349.851 321C346.122 321 343.099 324.091 343.099 327.903C343.099 331.716 346.122 334.806 349.851 334.806Z" fill="white"/>
<path d="M373.179 334.806C376.908 334.806 379.931 331.716 379.931 327.903C379.931 324.091 376.908 321 373.179 321C369.449 321 366.426 324.091 366.426 327.903C366.426 331.716 369.449 334.806 373.179 334.806Z" fill="white"/>
<path d="M396.506 334.806C400.235 334.806 403.258 331.716 403.258 327.903C403.258 324.091 400.235 321 396.506 321C392.776 321 389.753 324.091 389.753 327.903C389.753 331.716 392.776 334.806 396.506 334.806Z" fill="white"/>
<path d="M605.827 322.711H589.257C588.928 322.718 588.615 322.853 588.385 323.087C588.155 323.322 588.027 323.637 588.027 323.966C588.027 324.294 588.155 324.61 588.385 324.844C588.615 325.079 588.928 325.214 589.257 325.22H605.827C606.155 325.214 606.468 325.079 606.698 324.844C606.928 324.61 607.057 324.294 607.057 323.966C607.057 323.637 606.928 323.322 606.698 323.087C606.468 322.853 606.155 322.718 605.827 322.711V322.711Z" fill="white"/>
<path d="M605.827 327.421H589.257C588.928 327.427 588.615 327.562 588.385 327.797C588.155 328.031 588.027 328.347 588.027 328.675C588.027 329.004 588.155 329.319 588.385 329.554C588.615 329.788 588.928 329.924 589.257 329.93H605.827C606.155 329.924 606.468 329.788 606.698 329.554C606.928 329.319 607.057 329.004 607.057 328.675C607.057 328.347 606.928 328.031 606.698 327.797C606.468 327.562 606.155 327.427 605.827 327.421V327.421Z" fill="white"/>
<path d="M605.827 332.124H589.257C588.928 332.131 588.615 332.266 588.385 332.5C588.155 332.735 588.027 333.05 588.027 333.379C588.027 333.707 588.155 334.023 588.385 334.257C588.615 334.492 588.928 334.627 589.257 334.634H605.827C606.156 334.627 606.468 334.492 606.698 334.257C606.928 334.023 607.057 333.707 607.057 333.379C607.057 333.05 606.928 332.735 606.698 332.5C606.468 332.266 606.156 332.131 605.827 332.124V332.124Z" fill="white"/>
<path d="M522.313 379.721C528.559 379.721 533.622 374.658 533.622 368.413C533.622 362.167 528.559 357.104 522.313 357.104C516.068 357.104 511.005 362.167 511.005 368.413C511.005 374.658 516.068 379.721 522.313 379.721Z" fill="white"/>
<path d="M617.627 393.454H514.372C513.93 393.455 513.491 393.368 513.082 393.199C512.673 393.03 512.301 392.782 511.988 392.469C511.674 392.157 511.426 391.785 511.256 391.376C511.087 390.967 511 390.529 511 390.086C511 389.644 511.087 389.205 511.256 388.796C511.426 388.387 511.674 388.016 511.988 387.703C512.301 387.39 512.673 387.143 513.082 386.974C513.491 386.805 513.93 386.718 514.372 386.719H617.627C618.07 386.718 618.508 386.805 618.918 386.974C619.327 387.143 619.699 387.39 620.012 387.703C620.325 388.016 620.574 388.387 620.743 388.796C620.913 389.205 621 389.644 621 390.086C621 390.529 620.913 390.967 620.743 391.376C620.574 391.785 620.325 392.157 620.012 392.469C619.699 392.782 619.327 393.03 618.918 393.199C618.508 393.368 618.07 393.455 617.627 393.454V393.454Z" fill="white"/>
<path d="M540.018 406.76H514.372C513.479 406.76 512.623 406.406 511.991 405.774C511.359 405.143 511.005 404.286 511.005 403.393C511.005 402.5 511.359 401.643 511.991 401.012C512.623 400.38 513.479 400.025 514.372 400.025H540.018C540.911 400.025 541.767 400.38 542.399 401.012C543.031 401.643 543.385 402.5 543.385 403.393C543.385 404.286 543.031 405.143 542.399 405.774C541.767 406.406 540.911 406.76 540.018 406.76V406.76Z" fill="white"/>
<path d="M522.313 556.231C528.559 556.231 533.622 551.168 533.622 544.923C533.622 538.677 528.559 533.614 522.313 533.614C516.068 533.614 511.005 538.677 511.005 544.923C511.005 551.168 516.068 556.231 522.313 556.231Z" fill="white"/>
<path d="M617.627 569.964H514.372C513.479 569.964 512.623 569.609 511.991 568.978C511.359 568.346 511.005 567.489 511.005 566.596C511.005 565.703 511.359 564.847 511.991 564.215C512.623 563.584 513.479 563.229 514.372 563.229H617.627C618.52 563.229 619.377 563.584 620.008 564.215C620.64 564.847 620.994 565.703 620.994 566.596C620.994 567.489 620.64 568.346 620.008 568.978C619.377 569.609 618.52 569.964 617.627 569.964V569.964Z" fill="white"/>
<path d="M540.018 583.27H514.372C513.479 583.27 512.623 582.916 511.991 582.284C511.359 581.653 511.005 580.796 511.005 579.903C511.005 579.01 511.359 578.153 511.991 577.522C512.623 576.89 513.479 576.535 514.372 576.535H540.018C540.911 576.535 541.767 576.89 542.399 577.522C543.031 578.153 543.385 579.01 543.385 579.903C543.385 580.796 543.031 581.653 542.399 582.284C541.767 582.916 540.911 583.27 540.018 583.27V583.27Z" fill="white"/>
<path d="M340.309 529.446C346.554 529.446 351.617 524.383 351.617 518.137C351.617 511.891 346.554 506.828 340.309 506.828C334.063 506.828 329 511.891 329 518.137C329 524.383 334.063 529.446 340.309 529.446Z" fill="white"/>
<path d="M435.623 543.178H332.368C331.475 543.178 330.618 542.823 329.987 542.192C329.355 541.56 329 540.704 329 539.811C329 538.918 329.355 538.061 329.987 537.43C330.618 536.798 331.475 536.443 332.368 536.443H435.623C436.516 536.443 437.372 536.798 438.004 537.43C438.635 538.061 438.99 538.918 438.99 539.811C438.99 540.704 438.635 541.56 438.004 542.192C437.372 542.823 436.516 543.178 435.623 543.178V543.178Z" fill="white"/>
<path d="M358.013 556.485H332.368C331.474 556.485 330.618 556.13 329.986 555.499C329.355 554.867 329 554.01 329 553.117C329 552.224 329.355 551.367 329.986 550.736C330.618 550.104 331.474 549.75 332.368 549.75H358.013C358.906 549.75 359.763 550.104 360.394 550.736C361.026 551.367 361.381 552.224 361.381 553.117C361.381 554.01 361.026 554.867 360.394 555.499C359.763 556.13 358.906 556.485 358.013 556.485V556.485Z" fill="white"/>
<path d="M522.313 461.323C528.559 461.323 533.622 456.26 533.622 450.014C533.622 443.769 528.559 438.706 522.313 438.706C516.068 438.706 511.005 443.769 511.005 450.014C511.005 456.26 516.068 461.323 522.313 461.323Z" fill="white"/>
<path d="M617.627 475.056H514.372C513.479 475.056 512.623 474.701 511.991 474.069C511.359 473.438 511.005 472.581 511.005 471.688C511.005 470.795 511.359 469.938 511.991 469.307C512.623 468.675 513.479 468.321 514.372 468.321H617.627C618.52 468.321 619.377 468.675 620.008 469.307C620.64 469.938 620.994 470.795 620.994 471.688C620.994 472.581 620.64 473.438 620.008 474.069C619.377 474.701 618.52 475.056 617.627 475.056V475.056Z" fill="white"/>
<path d="M576.419 488.362H514.372C513.479 488.362 512.623 488.007 511.991 487.376C511.359 486.744 511.005 485.888 511.005 484.994C511.005 484.101 511.359 483.245 511.991 482.613C512.623 481.982 513.479 481.627 514.372 481.627H576.419C577.312 481.627 578.168 481.982 578.8 482.613C579.431 483.245 579.786 484.101 579.786 484.994C579.786 485.888 579.431 486.744 578.8 487.376C578.168 488.007 577.312 488.362 576.419 488.362V488.362Z" fill="white"/>
<path d="M559.131 501.669H514.372C513.479 501.669 512.623 501.314 511.991 500.682C511.359 500.051 511.005 499.194 511.005 498.301C511.005 497.408 511.359 496.551 511.991 495.92C512.623 495.288 513.479 494.934 514.372 494.934H559.131C560.024 494.934 560.881 495.288 561.512 495.92C562.144 496.551 562.498 497.408 562.498 498.301C562.498 499.194 562.144 500.051 561.512 500.682C560.881 501.314 560.024 501.669 559.131 501.669V501.669Z" fill="white"/>
<path d="M419.208 376.528V495.259C419.207 496.087 418.878 496.882 418.292 497.468C417.707 498.054 416.913 498.385 416.084 498.387H353.525C346.603 491.969 340.925 484.329 336.775 475.851C336.502 475.305 336.242 474.754 335.994 474.195C332.213 465.99 329.924 457.177 329.235 448.168C329.188 447.614 329.149 447.063 329.124 446.504C329.038 445.075 329 443.624 329 442.168C328.987 432.483 330.816 422.883 334.39 413.88C334.603 413.321 334.829 412.766 335.064 412.216C339.769 401.154 347.002 391.349 356.183 383.59C356.729 383.125 357.281 382.673 357.839 382.233L357.967 382.131C365.152 376.442 374.054 373.361 383.217 373.391H416.084C416.914 373.394 417.709 373.725 418.295 374.313C418.881 374.901 419.209 375.698 419.208 376.528V376.528Z" fill="#C0FCC1"/>
<path opacity="0.2" d="M419.375 413.88V412.216H391.474V373.391H389.814V412.216H357.839V382.233C357.28 382.673 356.728 383.125 356.183 383.59V412.216H335.064C334.829 412.766 334.603 413.321 334.39 413.88H356.183V446.504H329.124C329.149 447.063 329.188 447.614 329.235 448.168H356.183V474.195H335.994C336.242 474.754 336.502 475.305 336.775 475.851H356.183V497.73H357.839V475.851H389.814V497.73H391.474V475.851H419.375V474.195H391.474C391.474 470.777 392.147 467.392 393.454 464.234C394.762 461.076 396.679 458.207 399.096 455.79C401.513 453.373 404.382 451.456 407.54 450.148C410.698 448.84 414.083 448.168 417.501 448.168H419.375V446.504H391.474V413.88H419.375ZM389.814 474.195H357.839V448.168H389.814V474.195ZM389.814 446.504H357.839V445.851C357.839 441.652 358.667 437.495 360.274 433.616C361.881 429.737 364.236 426.212 367.205 423.243C370.174 420.274 373.699 417.92 377.579 416.313C381.458 414.706 385.616 413.88 389.814 413.88V446.504Z" fill="black"/>
<path d="M416.228 474.614C415.559 474.645 414.897 474.47 414.331 474.111C413.766 473.753 413.324 473.23 413.065 472.612C412.807 471.994 412.745 471.312 412.887 470.658C413.03 470.004 413.37 469.409 413.862 468.954C413.944 468.627 414.003 468.392 414.085 468.065C414.056 467.993 414.026 467.922 413.996 467.851C410.99 460.682 391.806 480.667 390.976 487.404C390.611 490.382 390.765 493.401 391.432 496.327C385.218 482.771 381.991 468.038 381.97 453.126C381.969 449.384 382.177 445.645 382.593 441.927C382.937 438.878 383.414 435.851 384.024 432.846C387.355 416.54 394.506 401.257 404.89 388.252C410.829 388.583 416.033 387.678 416.536 376.169C416.625 374.122 418.144 372.349 418.478 370.332C417.911 370.407 417.335 370.453 416.768 370.49C416.592 370.499 416.406 370.509 416.229 370.518L416.162 370.521C415.539 370.549 414.921 370.396 414.383 370.081C413.845 369.766 413.409 369.302 413.128 368.745C412.848 368.188 412.734 367.562 412.801 366.942C412.867 366.322 413.112 365.734 413.505 365.25C413.75 364.949 413.995 364.648 414.24 364.347C414.612 363.882 414.993 363.426 415.365 362.962C415.408 362.918 415.448 362.871 415.486 362.822C415.913 362.292 416.341 361.772 416.768 361.242C415.988 360.031 414.938 359.016 413.701 358.277C409.416 355.768 403.505 357.506 400.41 361.382C397.306 365.257 396.72 370.695 397.798 375.537C398.859 379.657 400.612 383.567 402.985 387.099C402.752 387.397 402.511 387.685 402.278 387.982C398.031 393.444 394.329 399.309 391.225 405.493C392.103 398.634 381.366 373.865 377.214 368.619C372.226 362.317 361.999 365.067 361.12 373.056C361.111 373.133 361.103 373.21 361.095 373.288C361.712 373.636 362.315 374.005 362.906 374.396C363.648 374.891 364.223 375.6 364.556 376.428C364.888 377.256 364.963 378.166 364.77 379.037C364.577 379.908 364.125 380.701 363.474 381.311C362.823 381.921 362.002 382.321 361.12 382.457L361.03 382.471C352.774 394.258 379.24 424.938 385.864 418.049C382.746 426.886 380.791 436.09 380.046 445.431C379.625 450.941 379.65 456.477 380.12 461.984L380.093 461.789C378.621 449.795 353.369 431.963 345.995 433.448C341.748 434.304 337.564 434.109 338.209 438.394C338.219 438.462 338.229 438.531 338.24 438.599C339.385 439.065 340.499 439.602 341.577 440.207C342.193 440.555 342.797 440.924 343.388 441.315C344.13 441.811 344.705 442.519 345.038 443.347C345.37 444.176 345.445 445.085 345.252 445.956C345.059 446.828 344.607 447.62 343.956 448.231C343.304 448.841 342.484 449.24 341.602 449.376L341.512 449.39C341.447 449.399 341.391 449.409 341.326 449.418C337.568 462.348 365.436 483.216 382.379 476.576H382.388C384.067 483.872 386.5 490.974 389.647 497.767H415.578C415.671 497.479 415.755 497.182 415.839 496.893C413.438 497.044 411.029 496.901 408.663 496.466C410.587 494.105 412.511 491.726 414.435 489.365C414.478 489.321 414.518 489.274 414.556 489.226C415.532 488.017 416.517 486.818 417.493 485.61L417.494 485.609C417.546 481.905 417.121 478.21 416.229 474.615L416.228 474.614ZM386.534 416.2L386.547 416.181L386.534 416.218V416.2ZM380.79 467.979L380.567 467.477C380.576 467.114 380.576 466.752 380.567 466.38C380.567 466.278 380.548 466.176 380.548 466.073C380.632 466.715 380.706 467.356 380.799 467.997L380.79 467.979Z" fill="#FCA7D1"/>
</svg>
